grf
version=1
nRows=7
nColumns=37
inDegrees=no
endheader
time	ground_force_1_vx	ground_force_1_vy	ground_force_1_vz	ground_force_1_px	ground_force_1_py	ground_force_1_pz	ground_moment_1_mx	ground_moment_1_my	ground_moment_1_mz	ground_force_2_vx	ground_force_2_vy	ground_force_2_vz	ground_force_2_px	ground_force_2_py	ground_force_2_pz	ground_moment_2_mx	ground_moment_2_my	ground_moment_2_mz	ground_force_3_vx	ground_force_3_vy	ground_force_3_vz	ground_force_3_px	ground_force_3_py	ground_force_3_pz	ground_moment_3_mx	ground_moment_3_my	ground_moment_3_mz	ground_force_4_vx	ground_force_4_vy	ground_force_4_vz	ground_force_4_px	ground_force_4_py	ground_force_4_pz	ground_moment_4_mx	ground_moment_4_my	ground_moment_4_mz
      3.26000000	      0.00000000	     -0.00000000	      0.00000000	      0.00000000	      0.00000000	      0.00000000	      0.00000000	      0.00000000	      0.00000000	      0.68710029	      7.42438316	   -284.41513062	   -315.39669915	  -1120.49508349	      0.00000000	      0.00000000	      0.00000000	   2743.55597943	      4.58644726	    -10.49708291	   -296.27322388	   -325.83912927	   -732.14953121	      0.00000000	      0.00000000	      0.00000000	  -3739.04429879	      0.00000000	     -0.00000000	      0.00000000	      0.00000000	      0.00000000	      0.00000000	      0.00000000	      0.00000000	      0.00000000
      3.27000000	      0.00000000	     -0.00000000	      0.00000000	      0.00000000	      0.00000000	      0.00000000	      0.00000000	      0.00000000	      0.00000000	      0.11551232	      7.41096258	   -279.00091553	   -314.38536771	  -1121.90079938	      0.00000000	      0.00000000	      0.00000000	   2921.32686387	      4.47488740	    -10.18002244	   -292.13668823	   -324.58635177	   -732.20126659	      0.00000000	      0.00000000	     -0.00000000	  -3686.75865202	      0.00000000	     -0.00000000	      0.00000000	      0.00000000	      0.00000000	      0.00000000	      0.00000000	      0.00000000	      0.00000000
      3.28000000	      0.00000000	     -0.00000000	      0.00000000	      0.00000000	      0.00000000	      0.00000000	      0.00000000	      0.00000000	      0.00000000	     -0.87910217	      7.52411890	   -268.87292480	   -314.98260470	  -1121.20663241	      0.00000000	      0.00000000	      0.00000000	   3058.69170728	      4.47237304	    -10.14408226	   -286.24514771	   -325.52952018	   -731.50436135	      0.00000000	      0.00000000	     -0.00000000	  -3577.19092339	      0.00000000	     -0.00000000	      0.00000000	      0.00000000	      0.00000000	      0.00000000	      0.00000000	      0.00000000	      0.00000000
      3.29000000	      0.00000000	     -0.00000000	      0.00000000	      0.00000000	      0.00000000	      0.00000000	      0.00000000	      0.00000000	      0.00000000	     -2.03815126	      7.53753090	   -261.60775757	   -313.94716486	  -1121.97363329	      0.00000000	      0.00000000	      0.00000000	   3208.50697326	      3.67453412	    -10.06867234	   -279.22463989	   -324.49544551	   -731.48765379	      0.00000000	      0.00000000	     -0.00000000	  -3577.55146006	      0.00000000	     -0.00000000	      0.00000000	      0.00000000	      0.00000000	      0.00000000	      0.00000000	      0.00000000	      0.00000000
      3.30000000	      0.00000000	     -0.00000000	      0.00000000	      0.00000000	      0.00000000	      0.00000000	      0.00000000	      0.00000000	      0.00000000	     -3.51739597	      8.31456184	   -255.65234375	   -312.13078999	  -1125.69581493	      0.00000000	      0.00000000	      0.00000000	   3317.91527967	      2.25585845	    -10.16963492	   -274.23327637	   -323.62500897	   -730.32714332	      0.00000000	      0.00000000	     -0.00000000	  -3585.77889446	      0.00000000	     -0.00000000	      0.00000000	      0.00000000	      0.00000000	      0.00000000	      0.00000000	      0.00000000	      0.00000000
      3.31000000	      0.00000000	     -0.00000000	      0.00000000	      0.00000000	      0.00000000	      0.00000000	      0.00000000	      0.00000000	      0.00000000	     -5.35153723	      8.78508663	   -244.65402222	   -309.50627449	  -1124.83735178	      0.00000000	      0.00000000	      0.00000000	   3572.72442211	      0.26613190	    -10.37195302	   -265.65496826	   -322.68316079	   -729.67185772	      0.00000000	      0.00000000	     -0.00000000	  -3545.52372086	      0.00000000	     -0.00000000	      0.00000000	      0.00000000	      0.00000000	      0.00000000	      0.00000000	      0.00000000	      0.00000000
      3.32000000	      0.00000000	     -0.00000000	      0.00000000	      0.00000000	      0.00000000	      0.00000000	      0.00000000	      0.00000000	      0.00000000	     -8.73019028	      9.10160255	   -238.44570923	   -308.42132447	  -1126.23057613	      0.00000000	      0.00000000	      0.00000000	   3821.31204541	     -1.47085522	    -10.49792569	   -255.12489319	   -322.90291311	   -733.67852296	      0.00000000	      0.00000000	     -0.00000000	  -3496.93719466	      0.00000000	     -0.00000000	      0.00000000	      0.00000000	      0.00000000	      0.00000000	      0.00000000	      0.00000000	      0.00000000
